<svg xmlns="http://www.w3.org/2000/svg" width="123.047" height="100"><g fill="#fff"><path d="M61.52 10.23c12.96 0 14.5.06 19.6.3 4.73.2 7.3 1 9 1.67 2.27.86 3.9 1.92 5.58 3.6 1.7 1.7 2.75 3.32 3.64 5.6.65 1.7 1.44 4.28 1.66 9 .23 5.1.3 6.64.3 19.6s-.07 14.5-.3 19.6c-.22 4.72-1 7.3-1.66 9-.9 2.27-1.94 3.88-3.64 5.58-1.7 1.7-3.3 2.75-5.57 3.62-1.7.67-4.28 1.46-9 1.68-5.12.23-6.65.28-19.6.28-12.96 0-14.5-.05-19.6-.28-4.74-.22-7.3-1.02-9.02-1.68-2.25-.87-3.86-1.9-5.56-3.62-1.7-1.7-2.75-3.3-3.62-5.58-.67-1.7-1.46-4.27-1.68-9-.23-5.1-.3-6.64-.3-19.6s.07-14.5.3-19.6c.22-4.72 1-7.3 1.68-9 .87-2.27 1.92-3.9 3.62-5.6 1.7-1.68 3.3-2.74 5.57-3.6 1.73-.66 4.3-1.46 9.02-1.68 5.12-.23 6.65-.3 19.6-.3m0-8.72c-13.17 0-14.8.06-20 .3-5.15.23-8.68 1.04-11.76 2.24-3.2 1.25-5.9 2.9-8.6 5.6-2.68 2.7-4.35 5.4-5.6 8.6-1.2 3.08-2 6.6-2.25 11.77-.2 5.16-.28 6.83-.28 20s.07 14.82.3 20c.23 5.16 1.05 8.7 2.25 11.77 1.24 3.2 2.9 5.9 5.6 8.6 2.7 2.68 5.4 4.34 8.6 5.58 3.07 1.2 6.6 2 11.76 2.26 5.18.24 6.82.3 20 .3 13.16 0 14.8-.06 20-.3 5.15-.24 8.68-1.04 11.76-2.25 3.18-1.24 5.9-2.9 8.58-5.6 2.7-2.67 4.36-5.4 5.6-8.58 1.2-3.08 2-6.6 2.26-11.77.22-5.18.28-6.83.28-20s-.06-14.84-.28-20c-.24-5.17-1.06-8.68-2.27-11.76-1.23-3.2-2.9-5.9-5.6-8.6-2.67-2.7-5.4-4.35-8.58-5.6-3.1-1.2-6.62-2-11.78-2.25-5.18-.24-6.83-.3-20-.3zM61.52 25.1c-13.75 0-24.9 11.15-24.9 24.9s11.15 24.9 24.9 24.9c13.76 0 24.9-11.15 24.9-24.9S75.3 25.1 61.53 25.1zm0 41.07c-8.92 0-16.17-7.25-16.17-16.17 0-8.92 7.25-16.17 16.17-16.17 8.93 0 16.17 7.25 16.17 16.17 0 8.92-7.25 16.17-16.18 16.17zM93.24 24.1c0 3.23-2.62 5.83-5.83 5.83-3.2 0-5.8-2.6-5.8-5.82 0-3.2 2.6-5.82 5.8-5.82 3.22 0 5.84 2.62 5.84 5.83z"/></g></svg>