<svg xmlns="http://www.w3.org/2000/svg" width="123.047" height="100"><path fill="#fff" d="M61.36.7C33.4.7 10.73 22.77 10.73 50c0 20.9 13.34 38.73 32.18 45.9-.43-3.9-.83-9.88.2-14.13.9-3.85 5.92-24.5 5.92-24.5s-1.5-2.96-1.5-7.33c0-6.85 4.07-11.97 9.15-11.97 4.32 0 6.4 3.15 6.4 6.94 0 4.24-2.76 10.57-4.2 16.43-1.18 4.9 2.54 8.9 7.5 8.9 9 0 15.93-9.23 15.93-22.57 0-11.8-8.7-20.06-21.15-20.06-14.4 0-22.86 10.52-22.86 21.4 0 4.23 1.66 8.78 3.75 11.25.42.5.48.9.36 1.4-.38 1.57-1.23 4.92-1.4 5.6-.22.9-.73 1.1-1.7.66C33 65.05 29.04 56.05 29.04 48.8 29.03 33.27 40.63 19 62.5 19c17.55 0 31.2 12.18 31.2 28.47 0 17-11 30.67-26.27 30.67-5.13 0-9.96-2.6-11.6-5.66 0 0-2.55 9.4-3.16 11.72-1.15 4.28-4.23 9.65-6.3 12.92 4.74 1.43 9.78 2.2 15 2.2C89.33 99.3 112 77.23 112 50S89.33.7 61.36.7z"/></svg>