<svg xmlns="http://www.w3.org/2000/svg" width="123.047" height="100"><path fill="#fff" d="M113.42 12.62c-3.82 1.98-7.92 3.3-12.23 3.9 4.4-3.06 7.76-7.9 9.35-13.7-4.12 2.87-8.67 4.9-13.52 6.03-3.88-4.82-9.42-7.82-15.54-7.82-11.76 0-21.3 11.07-21.3 24.72 0 1.95.18 3.82.56 5.65-17.7-1.03-33.4-10.88-43.9-25.85-1.83 3.67-2.88 7.9-2.88 12.43 0 8.6 3.75 16.15 9.47 20.59-3.5-.13-6.77-1.26-9.64-3.1 0 .1 0 .2 0 .3 0 12 7.34 21.98 17.08 24.25-1.8.58-3.68.87-5.6.87-1.4 0-2.72-.16-4.02-.46 2.7 9.83 10.6 16.98 19.9 17.18C33.86 84.25 24.7 88.2 14.7 88.2c-1.7 0-3.4-.12-5.07-.34 9.4 7 20.6 11.1 32.64 11.1 39.17 0 60.6-37.67 60.6-70.34 0-1.08-.03-2.14-.08-3.2 4.16-3.5 7.76-7.84 10.62-12.8z"/></svg>